<svg xmlns="http://www.w3.org/2000/svg" viewBox="0 0 214.57 45.44"><defs><style>.cls-1{fill:#377dff;}.cls-2{fill:#312ecb;}</style></defs><g id="Layer_2" data-name="Layer 2"><g id="Layer_1-2" data-name="Layer 1"><path class="cls-1" d="M20.71,0H48.89L28.17,30.7H0Z"/><path class="cls-2" d="M22,33.55l-8,11.89H43.44l20.71-30.7H42.37L29.68,33.55Z"/><polygon class="cls-1" points="79.36 8.94 72.28 8.94 72.28 36.98 77.9 36.98 79.36 36.98 91.42 36.98 91.42 30.89 79.36 30.89 79.36 8.94"/><path class="cls-1" d="M105.58,28.83a2.63,2.63,0,0,1-.69,1.9,2.44,2.44,0,0,1-1.8.71,2.62,2.62,0,0,1-1.31-.32,2.19,2.19,0,0,1-.87-.91,2.87,2.87,0,0,1-.31-1.38V17.64H93.71V28.83a8.37,8.37,0,0,0,1.21,4.45,8.2,8.2,0,0,0,3.32,3,11.4,11.4,0,0,0,9.73,0,8.11,8.11,0,0,0,3.3-3,8.39,8.39,0,0,0,1.19-4.47V17.64h-6.88Z"/><path class="cls-1" d="M143.34,18.19a8.44,8.44,0,0,0-4-1,8.87,8.87,0,0,0-4.25,1,7.54,7.54,0,0,0-1.83,1.42,6.9,6.9,0,0,0-1.73-1.5,7,7,0,0,0-3.58-.93,8.46,8.46,0,0,0-4,.91,7.35,7.35,0,0,0-1.11.78V17.64H116V37h6.88V25.78a2.67,2.67,0,0,1,.34-1.4,2.28,2.28,0,0,1,.93-.89,2.87,2.87,0,0,1,1.38-.32,2.65,2.65,0,0,1,1.86.7,2.47,2.47,0,0,1,.75,1.91V37H135V25.78a2.67,2.67,0,0,1,.34-1.4,2.27,2.27,0,0,1,.95-.89,2.9,2.9,0,0,1,1.36-.32,2.65,2.65,0,0,1,1.86.7,2.47,2.47,0,0,1,.75,1.91V37h6.88V25.23a8.56,8.56,0,0,0-1-4.29A6.78,6.78,0,0,0,143.34,18.19Z"/><rect class="cls-1" x="150.7" y="17.64" width="6.92" height="19.34"/><path class="cls-1" d="M154.14,8a3.38,3.38,0,0,0-2.57,1.07,3.6,3.6,0,0,0-1,2.61,3.6,3.6,0,0,0,1,2.63,3.47,3.47,0,0,0,2.57,1,3.51,3.51,0,0,0,2.63-1,3.66,3.66,0,0,0,1-2.63,3.66,3.66,0,0,0-1-2.61A3.42,3.42,0,0,0,154.14,8Z"/><path class="cls-1" d="M177.49,18.21a7.25,7.25,0,0,0-3.73-1,8.81,8.81,0,0,0-4.1.93,7.49,7.49,0,0,0-1.16.81V17.64h-6.89V37h6.89V26.06a3.05,3.05,0,0,1,.35-1.54,2.6,2.6,0,0,1,1-1,3,3,0,0,1,1.48-.36,2.7,2.7,0,0,1,2.81,2.89V37H181V24.48a7.09,7.09,0,0,0-3.54-6.27Z"/><path class="cls-1" d="M199.68,18.49a11.38,11.38,0,0,0-5.52-1.33,11.52,11.52,0,0,0-5.54,1.33,10,10,0,0,0-3.85,3.6,9.56,9.56,0,0,0-1.41,5.16,9.72,9.72,0,0,0,1.43,5.2,10.21,10.21,0,0,0,3.85,3.64,12.29,12.29,0,0,0,11.08,0,10,10,0,0,0,3.83-3.64,9.8,9.8,0,0,0,1.41-5.2,9.49,9.49,0,0,0-1.43-5.16A10.18,10.18,0,0,0,199.68,18.49Zm-2.2,10.89a3.4,3.4,0,0,1-1.32,1.41,4.29,4.29,0,0,1-4,0,3.38,3.38,0,0,1-1.34-1.41,4.68,4.68,0,0,1,0-4.13,3.54,3.54,0,0,1,1.34-1.4,3.75,3.75,0,0,1,2-.52,3.81,3.81,0,0,1,2,.5,3.65,3.65,0,0,1,1.32,1.38,4.21,4.21,0,0,1,.5,2.08A4.38,4.38,0,0,1,197.48,29.38Z"/><rect class="cls-1" x="207.69" y="8.15" width="6.88" height="28.83"/></g></g></svg>